<svg xmlns="http://www.w3.org/2000/svg" width="88" height="87" viewBox="0 0 88 87">
    <path fill="#FFF" fill-rule="nonzero" d="M83.742 23.855c2.347 0 4.258-1.89 4.258-4.21 0-1.916-1.307-3.516-3.081-4.026l.158-7.433C86.77 7.63 88 6.068 88 4.21 88 1.889 86.09 0 83.742 0a4.232 4.232 0 0 0-4.208 3.718L61.853 7.704a4.254 4.254 0 0 0-6.075-1.342 21.2 21.2 0 0 0-18.76-2.367 4.25 4.25 0 0 0-6.684 1.034L19.792 3.425A4.249 4.249 0 0 0 15.613 0c-2.347 0-4.258 1.889-4.258 4.21 0 .884.28 1.703.752 2.38L5.46 15.629a4.214 4.214 0 0 0-1.202-.193c-2.347 0-4.258 1.89-4.258 4.21 0 2.2 1.722 3.991 3.9 4.175l5.06 19.01a4.195 4.195 0 0 0-1.863 3.476c0 .374.065.729.157 1.074C2.647 51.386 0 57.06 0 63.145c0 11.606 9.55 21.049 21.29 21.049 7.329 0 14.131-3.759 18.016-9.866.12.012.234.033.356.035l1.73 5.125c-.997.772-1.65 1.958-1.65 3.302 0 2.321 1.91 4.21 4.258 4.21a4.25 4.25 0 0 0 3.997-2.806h14.717A4.25 4.25 0 0 0 66.711 87a4.249 4.249 0 0 0 4.136-3.25C80.697 81.82 88 73.166 88 63.145c0-4.875-1.728-9.55-4.858-13.317.371-.624.6-1.342.6-2.118 0-2.321-1.91-4.21-4.258-4.21-.132 0-.256.027-.385.038l-5.164-11.062a4.167 4.167 0 0 0 1.29-3.008c0-.463-.093-.901-.233-1.318l6.46-4.967c.663.42 1.445.672 2.29.672zm-1.666-8.082a4.243 4.243 0 0 0-1.541 1.134l-17.276-6.642 16.895-3.809a4.251 4.251 0 0 0 2.085 1.678l-.163 7.639zm1.666 5.275c-.782 0-1.42-.629-1.42-1.403s.638-1.403 1.42-1.403c.782 0 1.42.629 1.42 1.403s-.638 1.403-1.42 1.403zm0-18.242c.782 0 1.42.63 1.42 1.404 0 .774-.638 1.403-1.42 1.403-.782 0-1.42-.63-1.42-1.403 0-.775.638-1.404 1.42-1.404zM58.194 8.42c.781 0 1.419.63 1.419 1.404 0 .774-.638 1.403-1.42 1.403-.781 0-1.419-.63-1.419-1.403 0-.775.638-1.404 1.42-1.404zm-4.067.224a4.124 4.124 0 0 0-.192 1.18c0 2.32 1.911 4.21 4.259 4.21a4.26 4.26 0 0 0 1.193-.19c2.003 2.989 3.065 6.424 3.065 10.012 0 4.421-1.601 8.478-4.258 11.64v-2.852c0-2.492-1.694-4.712-4.118-5.398l-5.818-1.642V23.82c1.713-1.283 2.839-3.295 2.839-5.577v-2.807c0-3.868-3.184-7.016-7.097-7.016-3.913 0-7.097 3.148-7.097 7.016v2.807c0 2.283 1.126 4.295 2.839 5.577v1.784l-5.818 1.642c-2.424.685-4.118 2.904-4.118 5.398v2.81a18.033 18.033 0 0 1-3.528-6.581c1.256-.733 2.11-2.07 2.11-3.614 0-1.748-1.086-3.25-2.624-3.884.585-4.195 2.646-8.078 5.814-10.955a4.257 4.257 0 0 0 2.487.807c2.347 0 4.258-1.89 4.258-4.21 0-.167-.032-.325-.05-.487A18.524 18.524 0 0 1 44 5.613c3.63 0 7.105 1.05 10.127 3.03zM44 22.452c-2.347 0-4.258-1.89-4.258-4.21v-2.807c0-2.32 1.91-4.21 4.258-4.21 2.347 0 4.258 1.89 4.258 4.21v2.807c0 2.32-1.91 4.21-4.258 4.21zm0 2.806c.485 0 .96-.05 1.42-.142v.964L44 27.483l-1.42-1.403v-.964c.46.093.935.142 1.42.142zm-3.252 2.98L44 31.451l3.252-3.215 6.043 1.708a2.824 2.824 0 0 1 2.06 2.698v5.561A18.482 18.482 0 0 1 44 42.097c-4.221 0-8.187-1.456-11.355-3.91v-5.544c0-1.247.848-2.356 2.059-2.698l6.044-1.708zM11.355 44.902c.782 0 1.42.63 1.42 1.403 0 .775-.638 1.404-1.42 1.404-.782 0-1.42-.63-1.42-1.404 0-.774.638-1.403 1.42-1.403zm.357-2.771l-5.06-19.01c.416-.28.773-.637 1.065-1.041l12.181 3.44c.058.91.408 1.735.96 2.398L12.201 42.18c-.158-.03-.326-.035-.49-.05zm3.9-33.713c.06 0 .112-.013.169-.017l5.547 13.71a4.306 4.306 0 0 0-.658.709L8.49 19.38c-.05-.78-.302-1.507-.726-2.116l6.648-9.037c.383.114.78.192 1.2.192zm3.73-2.222L29.887 7.8c.018.099.05.191.078.289a21.059 21.059 0 0 0-6.706 11.238L18.413 7.356c.378-.329.69-.719.93-1.16zm4.787 17.658c.782 0 1.42.629 1.42 1.403s-.638 1.403-1.42 1.403c-.782 0-1.42-.629-1.42-1.403s.638-1.403 1.42-1.403zm9.936-18.242c.781 0 1.419.629 1.419 1.403s-.638 1.403-1.42 1.403c-.781 0-1.419-.629-1.419-1.403s.638-1.403 1.42-1.403zM15.613 2.806c.782 0 1.42.63 1.42 1.404 0 .774-.638 1.403-1.42 1.403-.782 0-1.42-.63-1.42-1.403 0-.775.638-1.404 1.42-1.404zM2.839 19.646c0-.775.637-1.404 1.42-1.404.78 0 1.418.629 1.418 1.403s-.637 1.403-1.419 1.403-1.42-.629-1.42-1.403zm7.096 57.849v-5.561c0-1.248.848-2.356 2.059-2.7l6.045-1.706 3.251 3.214 3.252-3.214 6.043 1.707a2.824 2.824 0 0 1 2.06 2.699v5.574a18.574 18.574 0 0 1-11.355 3.88c-4.283 0-8.22-1.464-11.355-3.893zM21.29 61.742c-2.347 0-4.258-1.89-4.258-4.21v-2.806c0-2.32 1.911-4.21 4.258-4.21 2.348 0 4.258 1.89 4.258 4.21v2.806c0 2.32-1.91 4.21-4.258 4.21zm0 2.806c.485 0 .96-.049 1.42-.141v.964l-1.42 1.403-1.419-1.403v-.964c.459.092.934.141 1.42.141zm14.194 10.224v-2.84c0-2.492-1.693-4.712-4.118-5.398l-5.818-1.64v-1.785c1.714-1.283 2.84-3.295 2.84-5.577v-2.806c0-3.869-3.185-7.016-7.098-7.016s-7.096 3.147-7.096 7.016v2.806c0 2.283 1.125 4.296 2.838 5.577v1.785l-5.818 1.641c-2.424.685-4.117 2.905-4.117 5.399v2.85c-2.657-3.16-4.258-7.217-4.258-11.639 0-5.16 2.197-9.977 6.03-13.435a4.258 4.258 0 0 0 2.486.806c2.347 0 4.258-1.889 4.258-4.21 0-.164-.03-.32-.049-.478a18.447 18.447 0 0 1 5.726-.925c10.174 0 18.452 8.184 18.452 18.242 0 .928-.107 1.878-.263 2.833-2.224.137-3.995 1.951-3.995 4.183 0 1.157.474 2.203 1.24 2.965-.383.577-.8 1.123-1.24 1.646zm4.258-6.014c.782 0 1.42.629 1.42 1.403 0 .775-.638 1.404-1.42 1.404-.782 0-1.42-.63-1.42-1.404 0-.774.638-1.403 1.42-1.403zM44 84.194c-.782 0-1.42-.63-1.42-1.404 0-.774.638-1.403 1.42-1.403.782 0 1.42.63 1.42 1.403 0 .775-.638 1.404-1.42 1.404zm22.71-22.452c-2.348 0-4.258-1.89-4.258-4.21v-2.806c0-2.32 1.91-4.21 4.258-4.21 2.347 0 4.258 1.89 4.258 4.21v2.806c0 2.32-1.911 4.21-4.258 4.21zm0 2.806c.485 0 .96-.049 1.419-.141v.964l-1.42 1.403-1.419-1.403v-.964c.46.092.935.141 1.42.141zm-3.252 2.98l3.252 3.214 3.251-3.214 6.044 1.707a2.824 2.824 0 0 1 2.06 2.699v5.534a18.384 18.384 0 0 1-7.54 3.488 4.254 4.254 0 0 0-3.815-2.375c-1.681 0-3.123.975-3.816 2.375a18.384 18.384 0 0 1-7.54-3.488v-5.534c0-1.248.848-2.356 2.06-2.7l6.044-1.706zm3.252 16.666c-.782 0-1.42-.63-1.42-1.404 0-.774.638-1.403 1.42-1.403.781 0 1.419.63 1.419 1.403 0 .775-.638 1.404-1.42 1.404zm14.193-9.47v-2.792c0-2.492-1.693-4.712-4.117-5.398l-5.818-1.64v-1.785c1.713-1.283 2.838-3.295 2.838-5.577v-2.806c0-3.869-3.183-7.016-7.096-7.016-3.913 0-7.097 3.147-7.097 7.016v2.806c0 2.283 1.125 4.296 2.839 5.577v1.785l-5.818 1.641c-2.425.685-4.118 2.905-4.118 5.399v2.792c-2.66-3.177-4.258-7.228-4.258-11.58 0-10.058 8.278-18.241 18.452-18.241 2.987 0 5.931.733 8.585 2.122-.037.222-.07.448-.07.683 0 2.32 1.912 4.21 4.259 4.21.527 0 1.026-.108 1.491-.282 2.698 3.26 4.186 7.299 4.186 11.507 0 4.353-1.598 8.402-4.258 11.58zm0-27.014c0 .774-.637 1.403-1.42 1.403-.78 0-1.418-.63-1.418-1.403 0-.775.637-1.404 1.419-1.404s1.42.63 1.42 1.404zm-4.52-3.291a21.398 21.398 0 0 0-9.673-2.322c-11.74 0-21.29 9.442-21.29 21.048 0 7.69 4.301 14.577 10.751 18.242h-8.174a4.244 4.244 0 0 0-3.917-2.798l-1.73-5.126c.997-.771 1.65-1.957 1.65-3.302 0-1.404-.707-2.643-1.778-3.408.215-1.214.359-2.423.359-3.608 0-11.606-9.551-21.048-21.29-21.048-2.151 0-4.264.33-6.31.962l8.3-13.676c.068.015.14.01.206.022C25.991 38.445 34.43 44.903 44 44.903c11.74 0 21.29-9.442 21.29-21.048 0-3.93-1.1-7.702-3.182-11.022l17.388 6.686c-.001.042-.012.083-.012.126 0 .463.093.901.234 1.318l-6.461 4.967a4.254 4.254 0 0 0-2.29-.672c-2.347 0-4.257 1.89-4.257 4.21 0 2.32 1.91 4.21 4.258 4.21.131 0 .255-.027.383-.038l5.033 10.779zM70.969 30.87c-.782 0-1.42-.629-1.42-1.403s.638-1.403 1.42-1.403c.781 0 1.42.629 1.42 1.403s-.639 1.403-1.42 1.403z"/>
</svg>
