<svg xmlns="http://www.w3.org/2000/svg" width="74" height="82" viewBox="0 0 74 82">
    <g fill="#FFF" fill-rule="nonzero">
        <path d="M2.313 45.556C1.034 45.556 0 46.576 0 47.833v15.945C0 73.826 8.3 82 18.5 82S37 73.826 37 63.778V47.833c0-1.258-1.035-2.277-2.313-2.277H20.813v-31.89h6.937c1.277 0 2.313-1.019 2.313-2.277V2.278C30.063 1.02 29.026 0 27.75 0H9.25C7.973 0 6.937 1.02 6.937 2.278v9.11c0 1.26 1.036 2.279 2.313 2.279h6.938v31.889H2.313zm8.258-35.233V3.344H26.43v6.979H10.57zm7.929 46.04c1.386 0 2.51-1.106 2.51-2.472v-4.943h12.546v14.83c0 8.177-6.754 14.83-15.056 14.83S3.444 71.955 3.444 63.778v-14.83h12.547v4.943c0 1.366 1.123 2.472 2.509 2.472zM57.812 41.57c5.594-.78 10.437-4.351 12.707-9.543l3.294-7.534c.306-.7.233-1.505-.195-2.14a2.324 2.324 0 0 0-1.93-1.02h-4.344a14.206 14.206 0 0 0-9.532 3.639v-1.096c0-3.707-1.472-7.191-4.145-9.811-2.674-2.62-6.23-4.065-10.01-4.065h-4.344c-.778 0-1.503.383-1.93 1.02a2.227 2.227 0 0 0-.196 2.14l3.294 7.533c2.27 5.193 7.113 8.764 12.707 9.544V36.305a14.204 14.204 0 0 0-9.532-3.638h-4.343c-.778 0-1.503.382-1.93 1.019a2.227 2.227 0 0 0-.196 2.14l3.294 7.534c2.27 5.192 7.113 8.764 12.707 9.543v22.83c0 1.252 1.035 2.267 2.312 2.267s2.312-1.015 2.312-2.267V64.237c5.594-.78 10.437-4.351 12.707-9.544l3.294-7.533c.306-.7.233-1.505-.195-2.14a2.324 2.324 0 0 0-1.93-1.02h-4.344a14.206 14.206 0 0 0-9.532 3.638V41.57zm0-6.675c0-2.937 1.263-5.7 3.558-7.775 2.295-2.077 5.346-3.22 8.59-3.22h1.067l-2.437 5.148c-1.96 4.141-6.02 7.065-10.778 7.928v-2.081zm-4.624 13.413c-4.44-.805-8.23-3.533-10.06-7.4l-2.274-4.805h.996c3.028 0 5.876 1.068 8.017 3.007 2.141 1.937 3.32 4.515 3.32 7.257v1.941zm.982-21.246c-4.756-.979-8.817-4.29-10.777-8.986l-2.437-5.835h1.067c3.244 0 6.295 1.297 8.59 3.651 2.293 2.353 3.557 5.483 3.557 8.812v2.358zm6.963 22.725c2.141-2.077 4.989-3.221 8.017-3.221h.996l-2.275 5.148c-1.83 4.142-5.619 7.065-10.059 7.929v-2.08c0-2.938 1.179-5.7 3.321-7.776z"/>
    </g>
</svg>
